Coordinates
version=1
nRows=11
nColumns=36
inDegrees=yes

Units are S.I. units (second, meters, Newtons, ...)
If the header above contains a line with 'inDegrees', this indicates whether rotational values are in degrees (yes) or radians (no).

endheader
time	pelvis_tilt	pelvis_list	pelvis_rotation	pelvis_tx	pelvis_ty	pelvis_tz	hip_flexion_r	hip_adduction_r	hip_rotation_r	knee_angle_r	knee_angle_r_beta	ankle_angle_r	subtalar_angle_r	mtp_angle_r	hip_flexion_l	hip_adduction_l	hip_rotation_l	knee_angle_l	knee_angle_l_beta	ankle_angle_l	subtalar_angle_l	mtp_angle_l	lumbar_extension	lumbar_bending	lumbar_rotation	arm_flex_r	arm_add_r	arm_rot_r	elbow_flex_r	pro_sup_r	arm_flex_l	arm_add_l	arm_rot_l	elbow_flex_l	pro_sup_l
      5.91666670	     -0.16212044	      8.30840566	     -1.04967446	      0.04047208	      0.91195592	      0.13427280	     22.13976802	      0.55176567	     -0.74313361	     32.17067820	      0.56148426	      9.52287545	    -16.12796342	     -7.49999987	     51.33338893	      3.50949144	     -9.06136018	      2.54397471	      0.04440073	    -11.61009374	     -8.71735968	     -7.49999987	    -33.47248927	     -4.43997309	     -5.43331736	     65.31066011	      9.01001432	     33.65750267	    114.69800740	     96.09681066	     87.83005371	      9.51842466	     73.71748651	    122.11604629	     77.73070089
      5.93333330	      0.77986527	      8.31796333	     -1.06449375	      0.04173297	      0.91890995	      0.13560647	     20.14542798	      0.55733480	     -0.84577042	     30.38233174	      0.53027172	      8.84884666	    -15.90778615	     -7.49999987	     50.07956193	      3.54049456	     -8.91459387	      2.49675513	      0.04357660	    -11.73631392	     -9.09920895	     -7.49999987	    -33.77637682	     -4.66126149	     -5.68113662	     64.72623600	      9.05567868	     33.43973705	    113.74421887	     95.39674896	     87.16113416	      9.30544962	     74.06270307	    122.05154983	     76.83849605
      5.95000000	      1.44705302	      8.42601588	     -0.61801075	      0.04449876	      0.92057002	      0.13532797	     18.25573324	      0.37937445	     -1.14408341	     28.60333566	      0.49922238	      8.21784760	    -15.97973945	     -7.49999987	     49.26874216	      3.98212747	     -8.85991368	      2.71412567	      0.04737043	    -11.83842867	     -9.06574827	     -7.49999987	    -33.63774862	     -4.75551109	     -5.81510962	     63.66262151	      8.82719187	     32.68610515	    112.56762728	     95.63418162	     86.54734780	      9.55652764	     74.47360438	    122.10663272	     76.98197381
      5.96666670	      2.22679988	      8.63162331	     -0.19499703	      0.04729439	      0.92663086	      0.13574405	     16.45649775	      0.11916850	     -1.36589218	     27.18111557	      0.47439996	      7.52784648	    -16.06620288	     -7.49999987	     48.17939915	      4.50471630	     -8.62072384	      2.88010464	      0.05026731	    -11.84464101	     -9.18316209	     -7.49999987	    -33.62904029	     -4.89605409	     -5.96817441	     62.51422356	      8.79579762	     31.66970453	    111.30946058	     95.46235866	     85.76268690	      9.75402172	     74.80676792	    121.82005691	     76.71634882
      5.98333330	      2.87697950	      8.73942003	      0.18953972	      0.04850631	      0.92884311	      0.13580225	     15.12125467	     -0.03612539	     -1.64500724	     26.28220484	      0.45871101	      6.64556642	    -16.16813664	     -7.49999987	     47.33159375	      4.95157040	     -8.09217597	      3.09075882	      0.05394392	    -11.76225371	     -9.18631293	     -7.49999987	    -33.50967560	     -4.91776932	     -6.07034064	     61.30031217	      8.68356527	     30.88807220	    111.37478932	     95.71113200	     85.07767678	      9.97091156	     74.75377854	    121.49871729	     77.12934495
      6.00000000	      3.71802786	      8.89813911	      0.51500088	      0.05061479	      0.93444129	      0.13672435	     13.34589981	     -0.18043801	     -1.85747720	     25.04344683	      0.43709060	      5.80975136	    -16.22317779	     -7.49999987	     46.16094034	      5.37881190	     -7.65521159	      3.15516713	      0.05506805	    -11.74853244	     -8.92591440	     -7.49999987	    -33.64459894	     -5.09827138	     -6.24944752	     60.39588687	      8.78819111	     30.32023914	    110.87986211	     95.80005397	     84.30873301	     10.01443353	     74.70934176	    121.26818284	     77.22921545
      6.01666670	      4.54705029	      9.05204343	      0.64724886	      0.05142501	      0.93594026	      0.13555173	     11.93720000	     -0.40078673	     -2.09907640	     24.23620102	      0.42300151	      5.68227287	    -16.03704550	     -7.49999987	     45.21161281	      5.72773193	     -7.47159879	      3.38674664	      0.05910988	    -11.63940323	     -8.69050234	     -7.49999987	    -33.72906998	     -5.22875101	     -6.56894266	     59.49030244	      8.95459820	     30.20594683	    111.38149860	     94.53986209	     83.75638567	      9.88407599	     74.78725158	    121.28641776	     76.46920094
      6.03333330	      5.32443873	      9.34204003	      0.89910169	      0.05288957	      0.93652208	      0.13605958	     10.39465476	     -0.69203337	     -2.39163769	     23.09613713	      0.40310364	      5.52967260	    -15.70019016	     -7.49999987	     44.32455990	      6.22553085	     -6.95512134	      3.29111368	      0.05744077	    -11.98829526	     -8.66725507	     -7.49999987	    -33.76923983	     -5.60499423	     -6.87144181	     58.56577311	      8.91912194	     30.02136805	    113.26544784	     94.43083538	     83.37660155	     10.24067928	     75.12907902	    121.22265512	     76.52475935
      6.05000000	      5.75342715	      9.29294366	      0.89966657	      0.05422025	      0.93795048	      0.13541953	      9.23626224	     -0.65205477	     -2.62266567	     22.00269308	      0.38401944	      5.67405180	    -15.41307901	     -7.49999987	     43.83711605	      6.30112148	     -6.31329305	      3.19153690	      0.05570283	    -12.31721102	     -8.82235406	     -7.49999987	    -33.66113383	     -5.55497563	     -6.91060244	     57.84984739	      8.66745240	     30.88345186	    117.42692588	     94.17812656	     83.02781362	     10.32098693	     75.06452137	    121.48394450	     76.42350353
      6.06666670	      6.17460488	      9.12233347	      0.98260660	      0.05451199	      0.93918832	      0.13611735	      7.62895724	     -0.36534144	     -2.74815238	     20.06770079	      0.35024745	      5.78482036	    -14.79577004	     -7.49999987	     43.31324288	      6.26294335	     -5.74392363	      2.98337275	      0.05206968	    -12.60320838	     -8.81636137	     -7.49999987	    -33.69463060	     -5.48296201	     -6.70660489	     57.48291083	      8.18898705	     30.86284248	    120.69211333	     94.17194387	     82.87841130	     10.76475081	     74.74757659	    120.90373816	     76.45586354
      6.08333330	      6.28959000	      8.82152482	      1.23356741	      0.05551377	      0.94010662	      0.13566018	      5.99501247	      0.06584515	     -3.06143320	     17.40975995	      0.30385763	      5.69184475	    -14.09067608	     -7.49999987	     43.11711477	      6.19104002	     -4.94872269	      2.74334777	      0.04788045	    -13.02731863	     -8.95616583	     -7.49999987	    -33.43715572	     -5.25983369	     -6.33154803	     56.83257848	      7.70762041	     30.76946649	    123.38839497	     99.26883872	     82.29985373	     11.38798651	     74.63699541	    120.50592141	     80.39787498
